<?xml version="1.0" encoding="utf-8"?>
<!-- Generator: Adobe Illustrator 23.0.3, SVG Export Plug-In . SVG Version: 6.00 Build 0)  -->
<svg version="1.1" id="Capa_1" xmlns="http://www.w3.org/2000/svg" xmlns:xlink="http://www.w3.org/1999/xlink" x="0px" y="0px"
	 viewBox="0 0 41 41" style="enable-background:new 0 0 41 41;" xml:space="preserve">
<style type="text/css">
	.st0{fill:#040006;}
</style>
<g>
	<polygon class="st0" points="7.45,7.45 3.73,7.45 3.73,0 0,0 0,17.39 0,18.64 0,41 2.48,41 3.73,41 11.18,41 11.18,37.27 
		3.73,37.27 3.73,18.64 3.73,17.39 3.73,11.18 7.45,11.18 7.45,18.64 11.18,18.64 11.18,0 7.45,0 	"/>
	<rect x="14.91" y="0" class="st0" width="3.73" height="18.64"/>
	<rect x="7.45" y="22.36" class="st0" width="3.73" height="11.18"/>
	<polygon class="st0" points="37.27,0 37.27,7.45 33.55,7.45 29.82,7.45 29.82,11.18 29.82,14.91 26.09,14.91 26.09,3.73 
		33.55,3.73 33.55,0 22.36,0 22.36,3.73 22.36,18.64 26.09,18.64 33.55,18.64 33.55,14.91 33.55,11.18 37.27,11.18 37.27,18.64 
		41,18.64 41,11.18 41,7.45 41,0 	"/>
	<rect x="29.82" y="29.82" class="st0" width="11.18" height="3.73"/>
	<rect x="29.82" y="37.27" class="st0" width="11.18" height="3.73"/>
	<polygon class="st0" points="14.91,22.36 14.91,26.09 14.91,29.82 14.91,33.55 14.91,41 18.64,41 18.64,33.55 26.09,33.55 
		26.09,29.82 18.64,29.82 18.64,26.09 41,26.09 41,22.36 18.64,22.36 	"/>
</g>
</svg>
